<mxfile host="app.diagrams.net" modified="2023-11-07T00:33:41.549Z" agent="Mozilla/5.0 (Windows NT 10.0; Win64; x64) AppleWebKit/537.36 (KHTML, like Gecko) Chrome/119.0.0.0 Safari/537.36" version="22.0.8" etag="U17TXXrtsDwWnCYoIEYK" type="github">
  <diagram name="Page-1" id="6qZLq_YopaaPj7wrMpon">
    <mxGraphModel>
      <root>
        <mxCell id="0" />
        <mxCell id="1" parent="0" />
      </root>
    </mxGraphModel>
  </diagram>
</mxfile>
